<svg id="svgcanv" height="800" width="100%" xmlns="http://www.w3.org/2000/svg" onmousemove="showMouseInfo(evt)"><polygon fill="#CCCCCC" stroke="black" points="140,100 50.000000000000014,151.96152422706632 50.000000000000014,48.03847577293368 "></polygon><polygon fill="#BBFFBB" stroke="black" points="140,203.92304845413264 50,151.96152422706632 140,100 "></polygon><polygon fill="#FFBBBB" stroke="black" points="50.00000000000003,255.88457268119896 49.999999999999986,151.96152422706632 140,203.92304845413264 "></polygon><polygon fill="#FFBBBB" stroke="black" points="140.00000000000003,307.8460969082653 50.00000000000003,255.88457268119896 140.00000000000003,203.92304845413264 "></polygon><polygon fill="#BBBBFF" stroke="black" points="50.00000000000006,359.8076211353316 50.000000000000014,255.88457268119896 140.00000000000006,307.8460969082653 "></polygon><polygon fill="#BBBBFF" stroke="black" points="140.00000000000006,411.7691453623979 50.00000000000006,359.8076211353316 140.00000000000006,307.8460969082653 "></polygon><polygon fill="#BBFFBB" stroke="black" points="50.000000000000085,463.73066958946424 50.00000000000004,359.8076211353316 140.00000000000006,411.7691453623979 "></polygon><polygon fill="#BBFFBB" stroke="black" points="140.00000000000009,515.6921938165306 50.000000000000085,463.73066958946424 140.00000000000009,411.7691453623979 "></polygon><polygon fill="#FFBBBB" stroke="black" points="50.000000000000114,567.6537180435969 50.00000000000007,463.73066958946424 140.0000000000001,515.6921938165306 "></polygon><polygon fill="#CCCCCC" stroke="black" points="140.0000000000001,619.6152422706632 50.000000000000114,567.6537180435969 140.0000000000001,515.6921938165306 "></polygon><polygon fill="#CCCCCC" stroke="black" points="260,100 170,151.96152422706632 170,48.03847577293368 "></polygon><polygon fill="#BBFFBB" stroke="black" points="260,203.92304845413264 170,151.96152422706632 260,100 "></polygon><polygon fill="#FFBBBB" stroke="black" points="170,255.88457268119896 169.99999999999997,151.96152422706632 260,203.92304845413264 "></polygon><polygon fill="#FFBBBB" stroke="black" points="260,307.8460969082653 170,255.88457268119896 260,203.92304845413264 "></polygon><polygon fill="#BBBBFF" stroke="black" points="170,359.8076211353316 169.99999999999997,255.88457268119896 260,307.8460969082653 "></polygon><polygon fill="#BBBBFF" stroke="black" points="260,411.7691453623979 170,359.8076211353316 260,307.8460969082653 "></polygon><polygon fill="#BBFFBB" stroke="black" points="170,463.73066958946424 169.99999999999997,359.8076211353316 260,411.7691453623979 "></polygon><polygon fill="#BBFFBB" stroke="black" points="260,515.6921938165306 170,463.73066958946424 260,411.7691453623979 "></polygon><polygon fill="#FFBBBB" stroke="black" points="170,567.6537180435969 169.99999999999997,463.73066958946424 260,515.6921938165306 "></polygon><polygon fill="#CCCCCC" stroke="black" points="260,619.6152422706632 170,567.6537180435969 260,515.6921938165306 "></polygon><polygon fill="#CCCCCC" stroke="black" points="380,100 290,151.96152422706632 290,48.03847577293368 "></polygon><polygon fill="#BBFFBB" stroke="black" points="380,203.92304845413264 290,151.96152422706632 380,100 "></polygon><polygon fill="#FFBBBB" stroke="black" points="290,255.88457268119896 290,151.96152422706632 380,203.92304845413264 "></polygon><polygon fill="#FFBBBB" stroke="black" points="380,307.8460969082653 290,255.88457268119896 380,203.92304845413264 "></polygon><polygon fill="#BBBBFF" stroke="black" points="290,359.8076211353316 290,255.88457268119896 380,307.8460969082653 "></polygon><polygon fill="#BBBBFF" stroke="black" points="380,411.7691453623979 290,359.8076211353316 380,307.8460969082653 "></polygon><polygon fill="#BBFFBB" stroke="black" points="290,463.73066958946424 290,359.8076211353316 380,411.7691453623979 "></polygon><polygon fill="#BBFFBB" stroke="black" points="380,515.6921938165306 290,463.73066958946424 380,411.7691453623979 "></polygon><polygon fill="#FFBBBB" stroke="black" points="290,567.6537180435969 290,463.73066958946424 380,515.6921938165306 "></polygon><polygon fill="#CCCCCC" stroke="black" points="380,619.6152422706632 290,567.6537180435969 380,515.6921938165306 "></polygon></svg>